<svg width="690" height="146" viewBox="0 0 690 146" fill="none" xmlns="http://www.w3.org/2000/svg">
<path d="M7.33594 18.2266V34.3281H4.52344V18.2266H0.585938V54.3438H4.52344V38.2422H7.33594V54.3438H11.2734V18.2266H7.33594ZM20.2969 18.2266L18.3281 33.9531L16.3828 18.2266H12.4453L16.3828 54.3438H20.2969L24.2344 18.2266H20.2969ZM36.7734 54.3438L33.0703 36.2734L36.7734 18.2266H32.8594L31.1016 27.9766L29.3672 18.2266H25.4297L29.1328 36.2969L25.4297 54.3438H29.3672L31.1016 44.5938L32.8594 54.3438H36.7734ZM47.1094 18.2266H37.9453V22.1641H43.1953L37.9453 50.4062V54.3438H47.1094V50.4062H41.8828L47.1094 22.1641V18.2266ZM54.9141 50.0547C54.9141 50.4141 54.7891 50.7188 54.5391 50.9688C54.2734 51.2188 53.9609 51.3438 53.6016 51.3438C53.2422 51.3438 52.9375 51.2188 52.6875 50.9688C52.4219 50.7188 52.2891 50.4141 52.2891 50.0547V22.5391C52.2891 22.1797 52.4219 21.875 52.6875 21.625C52.9375 21.3594 53.2422 21.2266 53.6016 21.2266C53.9609 21.2266 54.2734 21.3594 54.5391 21.625C54.7891 21.875 54.9141 22.1797 54.9141 22.5391V30.1328H58.9219V23.0078C58.9219 21.5547 58.3984 20.3047 57.3516 19.2578C56.3203 18.2266 55.0703 17.7109 53.6016 17.7109C52.1484 17.7109 50.8984 18.2266 49.8516 19.2578C48.8203 20.3047 48.3047 21.5547 48.3047 23.0078V49.5859C48.3047 51.0391 48.8203 52.2891 49.8516 53.3359C50.8984 54.3672 52.1484 54.8828 53.6016 54.8828C55.0703 54.8828 56.3203 54.3672 57.3516 53.3359C58.3984 52.2891 58.9219 51.0391 58.9219 49.5859V42.4141H54.9141V50.0547ZM66.2812 31.7266C66.2812 32.4297 66.0547 32.9141 65.6016 33.1797C65.3672 33.3047 65.1328 33.3672 64.8984 33.3672H64.0547V22.2578H64.9219C65.1562 22.2422 65.3828 22.2969 65.6016 22.4219C66.0547 22.6875 66.2812 23.1719 66.2812 23.875V31.7266ZM66.2812 48.7656C66.2812 49.4531 66.0547 49.9297 65.6016 50.1953C65.3672 50.3359 65.1328 50.3984 64.8984 50.3828H64.0547V37.9844H64.9219C65.1562 37.9688 65.3828 38.0234 65.6016 38.1484C66.0547 38.3984 66.2812 38.8828 66.2812 39.6016V48.7656ZM70.1484 40.1406C70.1484 38.375 69.6016 36.8828 68.5078 35.6641C69.6016 34.4453 70.1484 32.9531 70.1484 31.1875L70.1719 23.8047V23.1953C70.1719 22.7109 70.1719 22.3203 70.1719 22.0234C70.1406 21.1953 70.0469 20.5391 69.8906 20.0547C69.5 18.8359 68.4844 18.2266 66.8438 18.2266H60.1172V54.3438H66.4219C68.2812 54.3438 69.4297 53.75 69.8672 52.5625C70.0391 52.0781 70.1406 51.4219 70.1719 50.5938C70.1719 50.3125 70.1719 49.9297 70.1719 49.4453V48.8359L70.1484 40.1406Z" fill="white"/>
<path d="M75.2617 53.1719H73.293V35.1133H75.2617V53.1719ZM78.4961 34.8789C77.7695 34.8789 77.1445 35.1406 76.6211 35.6641C76.1055 36.1797 75.8477 36.8008 75.8477 37.5273V42.5547C75.8477 43.2266 76.0742 43.8164 76.5273 44.3242C77.0508 44.9102 77.6875 45.2031 78.4375 45.2031H78.5664C78.957 45.2031 79.1523 45.4219 79.1523 45.8594V51.0273C79.1523 51.207 79.0898 51.3594 78.9648 51.4844C78.832 51.6094 78.6758 51.6719 78.4961 51.6719C78.3164 51.6719 78.1641 51.6094 78.0391 51.4844C77.9141 51.3594 77.8516 51.207 77.8516 51.0273V46.0703H75.8477V51.0508C75.9102 51.7227 76.1953 52.2891 76.7031 52.75C77.2109 53.2109 77.8086 53.4414 78.4961 53.4414C79.1914 53.4414 79.793 53.2109 80.3008 52.75C80.8086 52.2891 81.0938 51.7188 81.1562 51.0391V51.0273V45.8477C81.1719 45.3711 81.0859 44.8984 80.8984 44.4297C80.7344 44.0156 80.5039 43.6875 80.207 43.4453C79.832 43.1484 79.3672 43 78.8125 43H78.4375C78.2656 43 78.1211 42.9375 78.0039 42.8125C77.9023 42.6875 77.8516 42.5352 77.8516 42.3555V37.3047C77.8516 37.1172 77.9141 36.9609 78.0391 36.8359C78.1641 36.7109 78.3164 36.6484 78.4961 36.6484C78.6758 36.6484 78.832 36.7109 78.9648 36.8359C79.0898 36.9609 79.1523 37.1172 79.1523 37.3047V42.2734H81.1562V37.5273C81.1562 36.8008 80.8945 36.1797 80.3711 35.6641C79.8555 35.1406 79.2305 34.8789 78.4961 34.8789Z" fill="white"/>
<path d="M93.4375 22.1641V18.2266H85.5859V54.3438H89.5234V38.2656H92.2188V34.3281H89.5234V22.1641H93.4375ZM98.5703 22.2578H99.4375C99.6719 22.2422 99.8984 22.2969 100.117 22.4219C100.57 22.6875 100.797 23.1719 100.797 23.875V35.4297C100.797 36.1484 100.57 36.6328 100.117 36.8828C99.8984 37.0078 99.6719 37.0625 99.4375 37.0469H98.5703V22.2578ZM94.6328 18.2266V54.3438H98.5703V41.1719H99.2266C99.4453 41.1562 99.6719 41.2109 99.9062 41.3359C100.109 41.4453 100.266 41.6016 100.375 41.8047C100.516 42.0703 100.586 42.3984 100.586 42.7891V54.3438H104.453V43.6797V42.8359C104.438 42.2266 104.398 41.7188 104.336 41.3125C104.18 40.2344 103.828 39.4531 103.281 38.9688C103.734 38.3281 104.094 37.5859 104.359 36.7422C104.562 36.0391 104.664 35.4141 104.664 34.8672V23.2656C104.664 22.8281 104.656 22.4531 104.641 22.1406C104.594 21.3281 104.484 20.6641 104.312 20.1484C103.875 18.8672 102.891 18.2266 101.359 18.2266H94.6328ZM109.82 22.5391C109.82 22.1797 109.953 21.875 110.219 21.625C110.469 21.3594 110.773 21.2266 111.133 21.2266C111.492 21.2266 111.805 21.3594 112.07 21.625C112.32 21.875 112.445 22.1797 112.445 22.5391V50.0547C112.445 50.4141 112.32 50.7188 112.07 50.9688C111.805 51.2188 111.492 51.3438 111.133 51.3438C110.773 51.3438 110.469 51.2188 110.219 50.9688C109.953 50.7188 109.82 50.4141 109.82 50.0547V22.5391ZM111.133 17.7109C109.68 17.7109 108.43 18.2266 107.383 19.2578C106.352 20.3047 105.836 21.5547 105.836 23.0078V49.5859C105.836 51.0391 106.352 52.2891 107.383 53.3359C108.43 54.3672 109.68 54.8828 111.133 54.8828C112.602 54.8828 113.852 54.3672 114.883 53.3359C115.93 52.2891 116.453 51.0391 116.453 49.5859V23.0078C116.453 21.5547 115.93 20.3047 114.883 19.2578C113.852 18.2266 112.602 17.7109 111.133 17.7109ZM124.188 18.2266V33.9062L121.586 18.2266H117.648V54.3438H121.586V38.5234L124.188 54.3438H128.125V18.2266H124.188ZM138.484 18.2266H129.32V22.1641H131.945V54.3438H135.859V22.1641H138.484V18.2266ZM147.531 22.1641V18.2266H139.68V54.3438H147.531V50.4062H143.617V38.2656H147.531V34.3281H143.617V22.1641H147.531ZM155.266 18.2266V33.9062L152.664 18.2266H148.727V54.3438H152.664V38.5234L155.266 54.3438H159.203V18.2266H155.266ZM166.586 48.6953C166.586 49.3984 166.352 49.8828 165.883 50.1484C165.648 50.2734 165.414 50.3281 165.18 50.3125H164.336V22.3047H165.18C165.414 22.2891 165.648 22.3438 165.883 22.4688C166.352 22.7344 166.586 23.2188 166.586 23.9219V48.6953ZM170.594 23.3125C170.594 22.8594 170.586 22.4766 170.57 22.1641C170.539 21.3359 170.438 20.6719 170.266 20.1719C169.844 18.875 168.844 18.2266 167.266 18.2266H160.398V54.3438H167.148C168.742 54.3438 169.766 53.7031 170.219 52.4219C170.391 51.9219 170.5 51.2578 170.547 50.4297C170.562 50.1172 170.57 49.7422 170.57 49.3047L170.594 23.3125ZM182.336 48.6953C182.336 49.3984 182.102 49.8828 181.633 50.1484C181.398 50.2734 181.164 50.3281 180.93 50.3125H180.086V22.3047H180.93C181.164 22.2891 181.398 22.3438 181.633 22.4688C182.102 22.7344 182.336 23.2188 182.336 23.9219V48.6953ZM186.344 23.3125C186.344 22.8594 186.336 22.4766 186.32 22.1641C186.289 21.3359 186.188 20.6719 186.016 20.1719C185.594 18.875 184.594 18.2266 183.016 18.2266H176.148V54.3438H182.898C184.492 54.3438 185.516 53.7031 185.969 52.4219C186.141 51.9219 186.25 51.2578 186.297 50.4297C186.312 50.1172 186.32 49.7422 186.32 49.3047L186.344 23.3125ZM195.391 22.1641V18.2266H187.539V54.3438H195.391V50.4062H191.477V38.2656H195.391V34.3281H191.477V22.1641H195.391ZM204.438 18.2266L202.469 33.9531L200.523 18.2266H196.586L200.523 54.3438H204.438L208.375 18.2266H204.438ZM217.422 22.1641V18.2266H209.57V54.3438H217.422V50.4062H213.508V38.2656H217.422V34.3281H213.508V22.1641H217.422ZM222.555 50.4062V18.2266H218.617V54.3438H226.469V50.4062H222.555ZM231.648 22.5391C231.648 22.1797 231.781 21.875 232.047 21.625C232.297 21.3594 232.602 21.2266 232.961 21.2266C233.32 21.2266 233.633 21.3594 233.898 21.625C234.148 21.875 234.273 22.1797 234.273 22.5391V50.0547C234.273 50.4141 234.148 50.7188 233.898 50.9688C233.633 51.2188 233.32 51.3438 232.961 51.3438C232.602 51.3438 232.297 51.2188 232.047 50.9688C231.781 50.7188 231.648 50.4141 231.648 50.0547V22.5391ZM232.961 17.7109C231.508 17.7109 230.258 18.2266 229.211 19.2578C228.18 20.3047 227.664 21.5547 227.664 23.0078V49.5859C227.664 51.0391 228.18 52.2891 229.211 53.3359C230.258 54.3672 231.508 54.8828 232.961 54.8828C234.43 54.8828 235.68 54.3672 236.711 53.3359C237.758 52.2891 238.281 51.0391 238.281 49.5859V23.0078C238.281 21.5547 237.758 20.3047 236.711 19.2578C235.68 18.2266 234.43 17.7109 232.961 17.7109ZM245.641 39.0859C245.641 39.7891 245.414 40.2734 244.961 40.5391C244.742 40.6641 244.516 40.7188 244.281 40.7031H243.414V22.2578H244.281C244.516 22.2422 244.742 22.2969 244.961 22.4219C245.414 22.6875 245.641 23.1719 245.641 23.875V39.0859ZM249.508 23.2656C249.508 22.8281 249.5 22.4531 249.484 22.1406C249.438 21.3281 249.328 20.6641 249.156 20.1484C248.719 18.8672 247.734 18.2266 246.203 18.2266H239.477V54.3438H243.414V44.7344H246.203C247.734 44.7344 248.719 44.0938 249.156 42.8125C249.328 42.3125 249.438 41.6484 249.484 40.8203C249.5 40.5078 249.508 40.1328 249.508 39.6953V23.2656ZM258.531 22.1641V18.2266H250.68V54.3438H258.531V50.4062H254.617V38.2656H258.531V34.3281H254.617V22.1641H258.531ZM263.664 22.2578H264.531C264.766 22.2422 264.992 22.2969 265.211 22.4219C265.664 22.6875 265.891 23.1719 265.891 23.875V35.4297C265.891 36.1484 265.664 36.6328 265.211 36.8828C264.992 37.0078 264.766 37.0625 264.531 37.0469H263.664V22.2578ZM259.727 18.2266V54.3438H263.664V41.1719H264.32C264.539 41.1562 264.766 41.2109 265 41.3359C265.203 41.4453 265.359 41.6016 265.469 41.8047C265.609 42.0703 265.68 42.3984 265.68 42.7891V54.3438H269.547V43.6797V42.8359C269.531 42.2266 269.492 41.7188 269.43 41.3125C269.273 40.2344 268.922 39.4531 268.375 38.9688C268.828 38.3281 269.188 37.5859 269.453 36.7422C269.656 36.0391 269.758 35.4141 269.758 34.8672V23.2656C269.758 22.8281 269.75 22.4531 269.734 22.1406C269.688 21.3281 269.578 20.6641 269.406 20.1484C268.969 18.8672 267.984 18.2266 266.453 18.2266H259.727Z" fill="white"/>
<path d="M276.598 51.0273C276.598 51.207 276.535 51.3594 276.41 51.4844C276.277 51.6094 276.121 51.6719 275.941 51.6719C275.762 51.6719 275.609 51.6094 275.484 51.4844C275.352 51.3594 275.285 51.207 275.285 51.0273V37.2695C275.285 37.0898 275.352 36.9375 275.484 36.8125C275.609 36.6797 275.762 36.6133 275.941 36.6133C276.121 36.6133 276.277 36.6797 276.41 36.8125C276.535 36.9375 276.598 37.0898 276.598 37.2695V41.0664H278.602V37.5039C278.602 36.7773 278.34 36.1523 277.816 35.6289C277.301 35.1133 276.676 34.8555 275.941 34.8555C275.215 34.8555 274.59 35.1133 274.066 35.6289C273.551 36.1523 273.293 36.7773 273.293 37.5039V50.793C273.293 51.5195 273.551 52.1445 274.066 52.668C274.59 53.1836 275.215 53.4414 275.941 53.4414C276.676 53.4414 277.301 53.1836 277.816 52.668C278.34 52.1445 278.602 51.5195 278.602 50.793V47.207H276.598V51.0273ZM282.504 51.0273C282.504 51.207 282.441 51.3594 282.316 51.4844C282.184 51.6094 282.027 51.6719 281.848 51.6719C281.668 51.6719 281.516 51.6094 281.391 51.4844C281.258 51.3594 281.191 51.207 281.191 51.0273V35.1133H279.199V50.793C279.199 51.5195 279.457 52.1445 279.973 52.668C280.496 53.1836 281.121 53.4414 281.848 53.4414C282.582 53.4414 283.207 53.1836 283.723 52.668C284.246 52.1445 284.508 51.5195 284.508 50.793V35.1133H282.504V51.0273ZM287.074 37.1289H287.508C287.625 37.1211 287.738 37.1484 287.848 37.2109C288.074 37.3438 288.188 37.5859 288.188 37.9375V43.7148C288.188 44.0742 288.074 44.3164 287.848 44.4414C287.738 44.5039 287.625 44.5312 287.508 44.5234H287.074V37.1289ZM285.105 35.1133V53.1719H287.074V46.5859H287.402C287.512 46.5781 287.625 46.6055 287.742 46.668C287.844 46.7227 287.922 46.8008 287.977 46.9023C288.047 47.0352 288.082 47.1992 288.082 47.3945V53.1719H290.016V47.8398V47.418C290.008 47.1133 289.988 46.8594 289.957 46.6562C289.879 46.1172 289.703 45.7266 289.43 45.4844C289.656 45.1641 289.836 44.793 289.969 44.3711C290.07 44.0195 290.121 43.707 290.121 43.4336V37.6328C290.121 37.4141 290.117 37.2266 290.109 37.0703C290.086 36.6641 290.031 36.332 289.945 36.0742C289.727 35.4336 289.234 35.1133 288.469 35.1133H285.105ZM292.676 37.1289H293.109C293.227 37.1211 293.34 37.1484 293.449 37.2109C293.676 37.3438 293.789 37.5859 293.789 37.9375V43.7148C293.789 44.0742 293.676 44.3164 293.449 44.4414C293.34 44.5039 293.227 44.5312 293.109 44.5234H292.676V37.1289ZM290.707 35.1133V53.1719H292.676V46.5859H293.004C293.113 46.5781 293.227 46.6055 293.344 46.668C293.445 46.7227 293.523 46.8008 293.578 46.9023C293.648 47.0352 293.684 47.1992 293.684 47.3945V53.1719H295.617V47.8398V47.418C295.609 47.1133 295.59 46.8594 295.559 46.6562C295.48 46.1172 295.305 45.7266 295.031 45.4844C295.258 45.1641 295.438 44.793 295.57 44.3711C295.672 44.0195 295.723 43.707 295.723 43.4336V37.6328C295.723 37.4141 295.719 37.2266 295.711 37.0703C295.688 36.6641 295.633 36.332 295.547 36.0742C295.328 35.4336 294.836 35.1133 294.07 35.1133H290.707ZM300.234 37.082V35.1133H296.309V53.1719H300.234V51.2031H298.277V45.1328H300.234V43.1641H298.277V37.082H300.234ZM304.102 35.1133V42.9531L302.801 35.1133H300.832V53.1719H302.801V45.2617L304.102 53.1719H306.07V35.1133H304.102ZM311.25 35.1133H306.668V37.082H307.98V53.1719H309.938V37.082H311.25V35.1133ZM313.816 51.2031V35.1133H311.848V53.1719H315.773V51.2031H313.816ZM320.965 35.1133H318.996L317.789 42.2148L316.582 35.1133H314.613L316.793 46.9844H316.805V53.1719H318.773V46.9844H318.785L320.965 35.1133ZM326.812 41.8633C326.812 42.2148 326.699 42.457 326.473 42.5898C326.355 42.6523 326.238 42.6836 326.121 42.6836H325.699V37.1289H326.133C326.25 37.1211 326.363 37.1484 326.473 37.2109C326.699 37.3438 326.812 37.5859 326.812 37.9375V41.8633ZM326.812 50.3828C326.812 50.7266 326.699 50.9648 326.473 51.0977C326.355 51.168 326.238 51.1992 326.121 51.1914H325.699V44.9922H326.133C326.25 44.9844 326.363 45.0117 326.473 45.0742C326.699 45.1992 326.812 45.4414 326.812 45.8008V50.3828ZM328.746 46.0703C328.746 45.1875 328.473 44.4414 327.926 43.832C328.473 43.2227 328.746 42.4766 328.746 41.5938L328.758 37.9023V37.5977C328.758 37.3555 328.758 37.1602 328.758 37.0117C328.742 36.5977 328.695 36.2695 328.617 36.0273C328.422 35.418 327.914 35.1133 327.094 35.1133H323.73V53.1719H326.883C327.812 53.1719 328.387 52.875 328.605 52.2812C328.691 52.0391 328.742 51.7109 328.758 51.2969C328.758 51.1562 328.758 50.9648 328.758 50.7227V50.418L328.746 46.0703ZM331.441 49.4336L331.945 44.1367L332.461 49.4336H331.441ZM332.93 53.1719H334.898L332.93 35.1133H330.973L329.004 53.1719H330.973L331.195 51.3906H332.707L332.93 53.1719ZM337.793 34.8789C337.066 34.8789 336.441 35.1406 335.918 35.6641C335.402 36.1797 335.145 36.8008 335.145 37.5273V42.5547C335.145 43.2266 335.371 43.8164 335.824 44.3242C336.348 44.9102 336.984 45.2031 337.734 45.2031H337.863C338.254 45.2031 338.449 45.4219 338.449 45.8594V51.0273C338.449 51.207 338.387 51.3594 338.262 51.4844C338.129 51.6094 337.973 51.6719 337.793 51.6719C337.613 51.6719 337.461 51.6094 337.336 51.4844C337.211 51.3594 337.148 51.207 337.148 51.0273V46.0703H335.145V51.0508C335.207 51.7227 335.492 52.2891 336 52.75C336.508 53.2109 337.105 53.4414 337.793 53.4414C338.488 53.4414 339.09 53.2109 339.598 52.75C340.105 52.2891 340.391 51.7188 340.453 51.0391V51.0273V45.8477C340.469 45.3711 340.383 44.8984 340.195 44.4297C340.031 44.0156 339.801 43.6875 339.504 43.4453C339.129 43.1484 338.664 43 338.109 43H337.734C337.562 43 337.418 42.9375 337.301 42.8125C337.199 42.6875 337.148 42.5352 337.148 42.3555V37.3047C337.148 37.1172 337.211 36.9609 337.336 36.8359C337.461 36.7109 337.613 36.6484 337.793 36.6484C337.973 36.6484 338.129 36.7109 338.262 36.8359C338.387 36.9609 338.449 37.1172 338.449 37.3047V42.2734H340.453V37.5273C340.453 36.8008 340.191 36.1797 339.668 35.6641C339.152 35.1406 338.527 34.8789 337.793 34.8789ZM345 37.082V35.1133H341.074V53.1719H345V51.2031H343.043V45.1328H345V43.1641H343.043V37.082H345ZM348.691 50.3477C348.691 50.6992 348.574 50.9414 348.34 51.0742C348.223 51.1367 348.105 51.1641 347.988 51.1562H347.566V37.1523H347.988C348.105 37.1445 348.223 37.1719 348.34 37.2344C348.574 37.3672 348.691 37.6094 348.691 37.9609V50.3477ZM350.695 37.6562C350.695 37.4297 350.691 37.2383 350.684 37.082C350.668 36.668 350.617 36.3359 350.531 36.0859C350.32 35.4375 349.82 35.1133 349.031 35.1133H345.598V53.1719H348.973C349.77 53.1719 350.281 52.8516 350.508 52.2109C350.594 51.9609 350.648 51.6289 350.672 51.2148C350.68 51.0586 350.684 50.8711 350.684 50.6523L350.695 37.6562ZM355.441 53.1719H353.473V35.1133H355.441V53.1719ZM359.297 35.1133V42.9531L357.996 35.1133H356.027V53.1719H357.996V45.2617L359.297 53.1719H361.266V35.1133H359.297Z" fill="white"/>
<path d="M370.883 17.7578C369.43 17.7578 368.18 18.2812 367.133 19.3281C366.102 20.3594 365.586 21.6016 365.586 23.0547V33.1094C365.586 34.4531 366.039 35.6328 366.945 36.6484C367.992 37.8203 369.266 38.4062 370.766 38.4062H371.023C371.805 38.4062 372.195 38.8438 372.195 39.7188V50.0547C372.195 50.4141 372.07 50.7188 371.82 50.9688C371.555 51.2188 371.242 51.3438 370.883 51.3438C370.523 51.3438 370.219 51.2188 369.969 50.9688C369.719 50.7188 369.594 50.4141 369.594 50.0547V40.1406H365.586V50.1016C365.711 51.4453 366.281 52.5781 367.297 53.5C368.312 54.4219 369.508 54.8828 370.883 54.8828C372.273 54.8828 373.477 54.4219 374.492 53.5C375.508 52.5781 376.078 51.4375 376.203 50.0781V50.0547V39.6953C376.234 38.7422 376.062 37.7969 375.688 36.8594C375.359 36.0312 374.898 35.375 374.305 34.8906C373.555 34.2969 372.625 34 371.516 34H370.766C370.422 34 370.133 33.875 369.898 33.625C369.695 33.375 369.594 33.0703 369.594 32.7109V22.6094C369.594 22.2344 369.719 21.9219 369.969 21.6719C370.219 21.4219 370.523 21.2969 370.883 21.2969C371.242 21.2969 371.555 21.4219 371.82 21.6719C372.07 21.9219 372.195 22.2344 372.195 22.6094V32.5469H376.203V23.0547C376.203 21.6016 375.68 20.3594 374.633 19.3281C373.602 18.2812 372.352 17.7578 370.883 17.7578ZM386.141 18.2266H376.977V22.1641H379.602V54.3438H383.516V22.1641H386.141V18.2266ZM389.398 54.3438H385.461V50.4062H389.398V54.3438ZM396.734 39.0859C396.734 39.7891 396.508 40.2734 396.055 40.5391C395.836 40.6641 395.609 40.7188 395.375 40.7031H394.508V22.2578H395.375C395.609 22.2422 395.836 22.2969 396.055 22.4219C396.508 22.6875 396.734 23.1719 396.734 23.875V39.0859ZM400.602 23.2656C400.602 22.8281 400.594 22.4531 400.578 22.1406C400.531 21.3281 400.422 20.6641 400.25 20.1484C399.812 18.8672 398.828 18.2266 397.297 18.2266H390.57V54.3438H394.508V44.7344H397.297C398.828 44.7344 399.812 44.0938 400.25 42.8125C400.422 42.3125 400.531 41.6484 400.578 40.8203C400.594 40.5078 400.602 40.1328 400.602 39.6953V23.2656ZM409.625 22.1641V18.2266H401.773V54.3438H409.625V50.4062H405.711V38.2656H409.625V34.3281H405.711V22.1641H409.625ZM419.984 18.2266H410.82V22.1641H413.445V54.3438H417.359V22.1641H419.984V18.2266ZM429.031 22.1641V18.2266H421.18V54.3438H429.031V50.4062H425.117V38.2656H429.031V34.3281H425.117V22.1641H429.031ZM434.164 22.2578H435.031C435.266 22.2422 435.492 22.2969 435.711 22.4219C436.164 22.6875 436.391 23.1719 436.391 23.875V35.4297C436.391 36.1484 436.164 36.6328 435.711 36.8828C435.492 37.0078 435.266 37.0625 435.031 37.0469H434.164V22.2578ZM430.227 18.2266V54.3438H434.164V41.1719H434.82C435.039 41.1562 435.266 41.2109 435.5 41.3359C435.703 41.4453 435.859 41.6016 435.969 41.8047C436.109 42.0703 436.18 42.3984 436.18 42.7891V54.3438H440.047V43.6797V42.8359C440.031 42.2266 439.992 41.7188 439.93 41.3125C439.773 40.2344 439.422 39.4531 438.875 38.9688C439.328 38.3281 439.688 37.5859 439.953 36.7422C440.156 36.0391 440.258 35.4141 440.258 34.8672V23.2656C440.258 22.8281 440.25 22.4531 440.234 22.1406C440.188 21.3281 440.078 20.6641 439.906 20.1484C439.469 18.8672 438.484 18.2266 436.953 18.2266H430.227ZM446.727 17.7578C445.273 17.7578 444.023 18.2812 442.977 19.3281C441.945 20.3594 441.43 21.6016 441.43 23.0547V33.1094C441.43 34.4531 441.883 35.6328 442.789 36.6484C443.836 37.8203 445.109 38.4062 446.609 38.4062H446.867C447.648 38.4062 448.039 38.8438 448.039 39.7188V50.0547C448.039 50.4141 447.914 50.7188 447.664 50.9688C447.398 51.2188 447.086 51.3438 446.727 51.3438C446.367 51.3438 446.062 51.2188 445.812 50.9688C445.562 50.7188 445.438 50.4141 445.438 50.0547V40.1406H441.43V50.1016C441.555 51.4453 442.125 52.5781 443.141 53.5C444.156 54.4219 445.352 54.8828 446.727 54.8828C448.117 54.8828 449.32 54.4219 450.336 53.5C451.352 52.5781 451.922 51.4375 452.047 50.0781V50.0547V39.6953C452.078 38.7422 451.906 37.7969 451.531 36.8594C451.203 36.0312 450.742 35.375 450.148 34.8906C449.398 34.2969 448.469 34 447.359 34H446.609C446.266 34 445.977 33.875 445.742 33.625C445.539 33.375 445.438 33.0703 445.438 32.7109V22.6094C445.438 22.2344 445.562 21.9219 445.812 21.6719C446.062 21.4219 446.367 21.2969 446.727 21.2969C447.086 21.2969 447.398 21.4219 447.664 21.6719C447.914 21.9219 448.039 22.2344 448.039 22.6094V32.5469H452.047V23.0547C452.047 21.6016 451.523 20.3594 450.477 19.3281C449.445 18.2812 448.195 17.7578 446.727 17.7578ZM459.453 31.7266C459.453 32.4297 459.227 32.9141 458.773 33.1797C458.539 33.3047 458.305 33.3672 458.07 33.3672H457.227V22.2578H458.094C458.328 22.2422 458.555 22.2969 458.773 22.4219C459.227 22.6875 459.453 23.1719 459.453 23.875V31.7266ZM459.453 48.7656C459.453 49.4531 459.227 49.9297 458.773 50.1953C458.539 50.3359 458.305 50.3984 458.07 50.3828H457.227V37.9844H458.094C458.328 37.9688 458.555 38.0234 458.773 38.1484C459.227 38.3984 459.453 38.8828 459.453 39.6016V48.7656ZM463.32 40.1406C463.32 38.375 462.773 36.8828 461.68 35.6641C462.773 34.4453 463.32 32.9531 463.32 31.1875L463.344 23.8047V23.1953C463.344 22.7109 463.344 22.3203 463.344 22.0234C463.312 21.1953 463.219 20.5391 463.062 20.0547C462.672 18.8359 461.656 18.2266 460.016 18.2266H453.289V54.3438H459.594C461.453 54.3438 462.602 53.75 463.039 52.5625C463.211 52.0781 463.312 51.4219 463.344 50.5938C463.344 50.3125 463.344 49.9297 463.344 49.4453V48.8359L463.32 40.1406ZM471.148 50.0547C471.148 50.4141 471.023 50.7188 470.773 50.9688C470.508 51.2188 470.195 51.3438 469.836 51.3438C469.477 51.3438 469.172 51.2188 468.922 50.9688C468.656 50.7188 468.523 50.4141 468.523 50.0547V18.2266H464.539V49.5859C464.539 51.0391 465.055 52.2891 466.086 53.3359C467.133 54.3672 468.383 54.8828 469.836 54.8828C471.305 54.8828 472.555 54.3672 473.586 53.3359C474.633 52.2891 475.156 51.0391 475.156 49.5859V18.2266H471.148V50.0547ZM480.289 22.2578H481.156C481.391 22.2422 481.617 22.2969 481.836 22.4219C482.289 22.6875 482.516 23.1719 482.516 23.875V35.4297C482.516 36.1484 482.289 36.6328 481.836 36.8828C481.617 37.0078 481.391 37.0625 481.156 37.0469H480.289V22.2578ZM476.352 18.2266V54.3438H480.289V41.1719H480.945C481.164 41.1562 481.391 41.2109 481.625 41.3359C481.828 41.4453 481.984 41.6016 482.094 41.8047C482.234 42.0703 482.305 42.3984 482.305 42.7891V54.3438H486.172V43.6797V42.8359C486.156 42.2266 486.117 41.7188 486.055 41.3125C485.898 40.2344 485.547 39.4531 485 38.9688C485.453 38.3281 485.812 37.5859 486.078 36.7422C486.281 36.0391 486.383 35.4141 486.383 34.8672V23.2656C486.383 22.8281 486.375 22.4531 486.359 22.1406C486.312 21.3281 486.203 20.6641 486.031 20.1484C485.594 18.8672 484.609 18.2266 483.078 18.2266H476.352ZM498.172 32.4766V23.0078C498.172 21.5547 497.648 20.3047 496.602 19.2578C495.57 18.2266 494.32 17.7109 492.852 17.7109C491.398 17.7109 490.148 18.2266 489.102 19.2578C488.07 20.3047 487.555 21.5547 487.555 23.0078V49.5859C487.555 51.0391 488.07 52.2891 489.102 53.3359C490.148 54.3672 491.398 54.8828 492.852 54.8828C494.32 54.8828 495.57 54.3672 496.602 53.3359C497.648 52.2891 498.172 51.0391 498.172 49.5859V34.3047H492.922V38.2422H494.164V50.0547C494.164 50.4141 494.039 50.7188 493.789 50.9688C493.523 51.2188 493.211 51.3438 492.852 51.3438C492.492 51.3438 492.188 51.2188 491.938 50.9688C491.672 50.7188 491.539 50.4141 491.539 50.0547V22.5391C491.539 22.1797 491.672 21.875 491.938 21.625C492.188 21.3594 492.492 21.2266 492.852 21.2266C493.211 21.2266 493.523 21.3594 493.789 21.625C494.039 21.875 494.164 22.1797 494.164 22.5391V32.4766H498.172Z" fill="white"/>
<path d="M47.4375 102.164V98.2266H39.5859V134.344H47.4375V130.406H43.5234V118.266H47.4375V114.328H43.5234V102.164H47.4375ZM55.2422 130.055C55.2422 130.414 55.1172 130.719 54.8672 130.969C54.6016 131.219 54.2891 131.344 53.9297 131.344C53.5703 131.344 53.2656 131.219 53.0156 130.969C52.75 130.719 52.6172 130.414 52.6172 130.055V102.539C52.6172 102.18 52.75 101.875 53.0156 101.625C53.2656 101.359 53.5703 101.227 53.9297 101.227C54.2891 101.227 54.6016 101.359 54.8672 101.625C55.1172 101.875 55.2422 102.18 55.2422 102.539V110.133H59.25V103.008C59.25 101.555 58.7266 100.305 57.6797 99.2578C56.6484 98.2266 55.3984 97.7109 53.9297 97.7109C52.4766 97.7109 51.2266 98.2266 50.1797 99.2578C49.1484 100.305 48.6328 101.555 48.6328 103.008V129.586C48.6328 131.039 49.1484 132.289 50.1797 133.336C51.2266 134.367 52.4766 134.883 53.9297 134.883C55.3984 134.883 56.6484 134.367 57.6797 133.336C58.7266 132.289 59.25 131.039 59.25 129.586V122.414H55.2422V130.055ZM64.4297 102.539C64.4297 102.18 64.5625 101.875 64.8281 101.625C65.0781 101.359 65.3828 101.227 65.7422 101.227C66.1016 101.227 66.4141 101.359 66.6797 101.625C66.9297 101.875 67.0547 102.18 67.0547 102.539V130.055C67.0547 130.414 66.9297 130.719 66.6797 130.969C66.4141 131.219 66.1016 131.344 65.7422 131.344C65.3828 131.344 65.0781 131.219 64.8281 130.969C64.5625 130.719 64.4297 130.414 64.4297 130.055V102.539ZM65.7422 97.7109C64.2891 97.7109 63.0391 98.2266 61.9922 99.2578C60.9609 100.305 60.4453 101.555 60.4453 103.008V129.586C60.4453 131.039 60.9609 132.289 61.9922 133.336C63.0391 134.367 64.2891 134.883 65.7422 134.883C67.2109 134.883 68.4609 134.367 69.4922 133.336C70.5391 132.289 71.0625 131.039 71.0625 129.586V103.008C71.0625 101.555 70.5391 100.305 69.4922 99.2578C68.4609 98.2266 67.2109 97.7109 65.7422 97.7109ZM83.0859 98.2266L79.6406 117.094L76.1953 98.2266H72.2578V134.344H76.1953V118.523L78.0938 134.344H81.1641L83.1328 118.219V134.344H87.0703V98.2266H83.0859ZM99.0703 98.2266L95.625 117.094L92.1797 98.2266H88.2422V134.344H92.1797V118.523L94.0781 134.344H97.1484L99.1172 118.219V134.344H103.055V98.2266H99.0703ZM112.078 102.164V98.2266H104.227V134.344H112.078V130.406H108.164V118.266H112.078V114.328H108.164V102.164H112.078ZM117.211 102.258H118.078C118.312 102.242 118.539 102.297 118.758 102.422C119.211 102.688 119.438 103.172 119.438 103.875V115.43C119.438 116.148 119.211 116.633 118.758 116.883C118.539 117.008 118.312 117.062 118.078 117.047H117.211V102.258ZM113.273 98.2266V134.344H117.211V121.172H117.867C118.086 121.156 118.312 121.211 118.547 121.336C118.75 121.445 118.906 121.602 119.016 121.805C119.156 122.07 119.227 122.398 119.227 122.789V134.344H123.094V123.68V122.836C123.078 122.227 123.039 121.719 122.977 121.312C122.82 120.234 122.469 119.453 121.922 118.969C122.375 118.328 122.734 117.586 123 116.742C123.203 116.039 123.305 115.414 123.305 114.867V103.266C123.305 102.828 123.297 102.453 123.281 102.141C123.234 101.328 123.125 100.664 122.953 100.148C122.516 98.8672 121.531 98.2266 120 98.2266H113.273ZM131.086 130.055C131.086 130.414 130.961 130.719 130.711 130.969C130.445 131.219 130.133 131.344 129.773 131.344C129.414 131.344 129.109 131.219 128.859 130.969C128.594 130.719 128.461 130.414 128.461 130.055V102.539C128.461 102.18 128.594 101.875 128.859 101.625C129.109 101.359 129.414 101.227 129.773 101.227C130.133 101.227 130.445 101.359 130.711 101.625C130.961 101.875 131.086 102.18 131.086 102.539V110.133H135.094V103.008C135.094 101.555 134.57 100.305 133.523 99.2578C132.492 98.2266 131.242 97.7109 129.773 97.7109C128.32 97.7109 127.07 98.2266 126.023 99.2578C124.992 100.305 124.477 101.555 124.477 103.008V129.586C124.477 131.039 124.992 132.289 126.023 133.336C127.07 134.367 128.32 134.883 129.773 134.883C131.242 134.883 132.492 134.367 133.523 133.336C134.57 132.289 135.094 131.039 135.094 129.586V122.414H131.086V130.055ZM144.141 102.164V98.2266H136.289V134.344H144.141V130.406H140.227V118.266H144.141V114.328H140.227V102.164H144.141ZM154.57 126.867L155.578 116.273L156.609 126.867H154.57ZM157.547 134.344H161.484L157.547 98.2266H153.633L149.695 134.344H153.633L154.078 130.781H157.102L157.547 134.344ZM166.617 102.258H167.484C167.719 102.242 167.945 102.297 168.164 102.422C168.617 102.688 168.844 103.172 168.844 103.875V115.43C168.844 116.148 168.617 116.633 168.164 116.883C167.945 117.008 167.719 117.062 167.484 117.047H166.617V102.258ZM162.68 98.2266V134.344H166.617V121.172H167.273C167.492 121.156 167.719 121.211 167.953 121.336C168.156 121.445 168.312 121.602 168.422 121.805C168.562 122.07 168.633 122.398 168.633 122.789V134.344H172.5V123.68V122.836C172.484 122.227 172.445 121.719 172.383 121.312C172.227 120.234 171.875 119.453 171.328 118.969C171.781 118.328 172.141 117.586 172.406 116.742C172.609 116.039 172.711 115.414 172.711 114.867V103.266C172.711 102.828 172.703 102.453 172.688 102.141C172.641 101.328 172.531 100.664 172.359 100.148C171.922 98.8672 170.938 98.2266 169.406 98.2266H162.68ZM183.047 98.2266H173.883V102.164H176.508V134.344H180.422V102.164H183.047V98.2266ZM193.734 130.617C193.359 130.617 193.039 130.461 192.773 130.148C192.523 129.852 192.398 129.484 192.398 129.047V119.789C192.398 118.93 192.883 118.422 193.852 118.266H195.07V129.047C195.07 129.484 194.938 129.852 194.672 130.148C194.422 130.461 194.109 130.617 193.734 130.617ZM200.203 130.617C199.609 130.617 199.211 130.273 199.008 129.586C198.93 129.367 198.883 129.125 198.867 128.859C198.867 128.781 198.867 128.703 198.867 128.625V118.266H200.508V114.375H194.391C193.672 114.375 193.141 114.203 192.797 113.859C192.531 113.578 192.398 113.203 192.398 112.734V103.523C192.398 103.086 192.523 102.719 192.773 102.422C193.039 102.109 193.359 101.953 193.734 101.953C194.109 101.953 194.422 102.109 194.672 102.422C194.938 102.719 195.07 103.086 195.07 103.523V112.57H198.844L198.867 112.219V104.062C198.867 102.406 198.367 100.992 197.367 99.8203C196.367 98.6328 195.156 98.0391 193.734 98.0391C192.312 98.0391 191.102 98.6328 190.102 99.8203C189.102 100.992 188.602 102.406 188.602 104.062V112.219C188.602 113.766 189.047 115.109 189.938 116.25C189.047 117.406 188.602 118.766 188.602 120.328V128.508C188.602 130.164 189.102 131.586 190.102 132.773C191.102 133.945 192.312 134.531 193.734 134.531C194.938 134.531 196.016 134.086 196.969 133.195C197.906 134.086 198.984 134.531 200.203 134.531C200.406 134.531 200.625 134.516 200.859 134.484V130.406C200.656 130.547 200.438 130.617 200.203 130.617ZM214.266 102.164V98.2266H206.414V134.344H214.266V130.406H210.352V118.266H214.266V114.328H210.352V102.164H214.266ZM226.805 134.344L223.102 116.273L226.805 98.2266H222.891L221.133 107.977L219.398 98.2266H215.461L219.164 116.297L215.461 134.344H219.398L221.133 124.594L222.891 134.344H226.805ZM234.141 119.086C234.141 119.789 233.914 120.273 233.461 120.539C233.242 120.664 233.016 120.719 232.781 120.703H231.914V102.258H232.781C233.016 102.242 233.242 102.297 233.461 102.422C233.914 102.688 234.141 103.172 234.141 103.875V119.086ZM238.008 103.266C238.008 102.828 238 102.453 237.984 102.141C237.938 101.328 237.828 100.664 237.656 100.148C237.219 98.8672 236.234 98.2266 234.703 98.2266H227.977V134.344H231.914V124.734H234.703C236.234 124.734 237.219 124.094 237.656 122.812C237.828 122.312 237.938 121.648 237.984 120.82C238 120.508 238.008 120.133 238.008 119.695V103.266ZM247.031 102.164V98.2266H239.18V134.344H247.031V130.406H243.117V118.266H247.031V114.328H243.117V102.164H247.031ZM252.164 102.258H253.031C253.266 102.242 253.492 102.297 253.711 102.422C254.164 102.688 254.391 103.172 254.391 103.875V115.43C254.391 116.148 254.164 116.633 253.711 116.883C253.492 117.008 253.266 117.062 253.031 117.047H252.164V102.258ZM248.227 98.2266V134.344H252.164V121.172H252.82C253.039 121.156 253.266 121.211 253.5 121.336C253.703 121.445 253.859 121.602 253.969 121.805C254.109 122.07 254.18 122.398 254.18 122.789V134.344H258.047V123.68V122.836C258.031 122.227 257.992 121.719 257.93 121.312C257.773 120.234 257.422 119.453 256.875 118.969C257.328 118.328 257.688 117.586 257.953 116.742C258.156 116.039 258.258 115.414 258.258 114.867V103.266C258.258 102.828 258.25 102.453 258.234 102.141C258.188 101.328 258.078 100.664 257.906 100.148C257.469 98.8672 256.484 98.2266 254.953 98.2266H248.227ZM263.367 134.344H259.43V98.2266H263.367V134.344ZM275.367 98.2266L271.922 117.094L268.477 98.2266H264.539V134.344H268.477V118.523L270.375 134.344H273.445L275.414 118.219V134.344H279.352V98.2266H275.367ZM288.375 102.164V98.2266H280.523V134.344H288.375V130.406H284.461V118.266H288.375V114.328H284.461V102.164H288.375ZM296.109 98.2266V113.906L293.508 98.2266H289.57V134.344H293.508V118.523L296.109 134.344H300.047V98.2266H296.109ZM310.406 98.2266H301.242V102.164H303.867V134.344H307.781V102.164H310.406V98.2266ZM314.133 126.867L315.141 116.273L316.172 126.867H314.133ZM317.109 134.344H321.047L317.109 98.2266H313.195L309.258 134.344H313.195L313.641 130.781H316.664L317.109 134.344ZM326.18 130.406V98.2266H322.242V134.344H330.094V130.406H326.18ZM341.836 128.695C341.836 129.398 341.602 129.883 341.133 130.148C340.898 130.273 340.664 130.328 340.43 130.312H339.586V102.305H340.43C340.664 102.289 340.898 102.344 341.133 102.469C341.602 102.734 341.836 103.219 341.836 103.922V128.695ZM345.844 103.312C345.844 102.859 345.836 102.477 345.82 102.164C345.789 101.336 345.688 100.672 345.516 100.172C345.094 98.875 344.094 98.2266 342.516 98.2266H335.648V134.344H342.398C343.992 134.344 345.016 133.703 345.469 132.422C345.641 131.922 345.75 131.258 345.797 130.43C345.812 130.117 345.82 129.742 345.82 129.305L345.844 103.312ZM354.891 102.164V98.2266H347.039V134.344H354.891V130.406H350.977V118.266H354.891V114.328H350.977V102.164H354.891ZM361.383 97.7578C359.93 97.7578 358.68 98.2812 357.633 99.3281C356.602 100.359 356.086 101.602 356.086 103.055V113.109C356.086 114.453 356.539 115.633 357.445 116.648C358.492 117.82 359.766 118.406 361.266 118.406H361.523C362.305 118.406 362.695 118.844 362.695 119.719V130.055C362.695 130.414 362.57 130.719 362.32 130.969C362.055 131.219 361.742 131.344 361.383 131.344C361.023 131.344 360.719 131.219 360.469 130.969C360.219 130.719 360.094 130.414 360.094 130.055V120.141H356.086V130.102C356.211 131.445 356.781 132.578 357.797 133.5C358.812 134.422 360.008 134.883 361.383 134.883C362.773 134.883 363.977 134.422 364.992 133.5C366.008 132.578 366.578 131.438 366.703 130.078V130.055V119.695C366.734 118.742 366.562 117.797 366.188 116.859C365.859 116.031 365.398 115.375 364.805 114.891C364.055 114.297 363.125 114 362.016 114H361.266C360.922 114 360.633 113.875 360.398 113.625C360.195 113.375 360.094 113.07 360.094 112.711V102.609C360.094 102.234 360.219 101.922 360.469 101.672C360.719 101.422 361.023 101.297 361.383 101.297C361.742 101.297 362.055 101.422 362.32 101.672C362.57 101.922 362.695 102.234 362.695 102.609V112.547H366.703V103.055C366.703 101.602 366.18 100.359 365.133 99.3281C364.102 98.2812 362.852 97.7578 361.383 97.7578ZM371.883 134.344H367.945V98.2266H371.883V134.344ZM383.672 112.477V103.008C383.672 101.555 383.148 100.305 382.102 99.2578C381.07 98.2266 379.82 97.7109 378.352 97.7109C376.898 97.7109 375.648 98.2266 374.602 99.2578C373.57 100.305 373.055 101.555 373.055 103.008V129.586C373.055 131.039 373.57 132.289 374.602 133.336C375.648 134.367 376.898 134.883 378.352 134.883C379.82 134.883 381.07 134.367 382.102 133.336C383.148 132.289 383.672 131.039 383.672 129.586V114.305H378.422V118.242H379.664V130.055C379.664 130.414 379.539 130.719 379.289 130.969C379.023 131.219 378.711 131.344 378.352 131.344C377.992 131.344 377.688 131.219 377.438 130.969C377.172 130.719 377.039 130.414 377.039 130.055V102.539C377.039 102.18 377.172 101.875 377.438 101.625C377.688 101.359 377.992 101.227 378.352 101.227C378.711 101.227 379.023 101.359 379.289 101.625C379.539 101.875 379.664 102.18 379.664 102.539V112.477H383.672ZM391.406 98.2266V113.906L388.805 98.2266H384.867V134.344H388.805V118.523L391.406 134.344H395.344V98.2266H391.406Z" fill="white"/>
<path d="M2.73047 130.434L3.23438 125.137L3.75 130.434H2.73047ZM4.21875 134.172H6.1875L4.21875 116.113H2.26172L0.292969 134.172H2.26172L2.48438 132.391H3.99609L4.21875 134.172ZM9.73828 132.027C9.73828 132.207 9.67578 132.359 9.55078 132.484C9.41797 132.609 9.26172 132.672 9.08203 132.672C8.90234 132.672 8.75 132.609 8.625 132.484C8.49219 132.359 8.42578 132.207 8.42578 132.027V118.27C8.42578 118.09 8.49219 117.938 8.625 117.812C8.75 117.68 8.90234 117.613 9.08203 117.613C9.26172 117.613 9.41797 117.68 9.55078 117.812C9.67578 117.938 9.73828 118.09 9.73828 118.27V122.066H11.7422V118.504C11.7422 117.777 11.4805 117.152 10.957 116.629C10.4414 116.113 9.81641 115.855 9.08203 115.855C8.35547 115.855 7.73047 116.113 7.20703 116.629C6.69141 117.152 6.43359 117.777 6.43359 118.504V131.793C6.43359 132.52 6.69141 133.145 7.20703 133.668C7.73047 134.184 8.35547 134.441 9.08203 134.441C9.81641 134.441 10.4414 134.184 10.957 133.668C11.4805 133.145 11.7422 132.52 11.7422 131.793V128.207H9.73828V132.027ZM14.3086 118.129H14.7422C14.8594 118.121 14.9727 118.148 15.082 118.211C15.3086 118.344 15.4219 118.586 15.4219 118.938V124.715C15.4219 125.074 15.3086 125.316 15.082 125.441C14.9727 125.504 14.8594 125.531 14.7422 125.523H14.3086V118.129ZM12.3398 116.113V134.172H14.3086V127.586H14.6367C14.7461 127.578 14.8594 127.605 14.9766 127.668C15.0781 127.723 15.1562 127.801 15.2109 127.902C15.2812 128.035 15.3164 128.199 15.3164 128.395V134.172H17.25V128.84V128.418C17.2422 128.113 17.2227 127.859 17.1914 127.656C17.1133 127.117 16.9375 126.727 16.6641 126.484C16.8906 126.164 17.0703 125.793 17.2031 125.371C17.3047 125.02 17.3555 124.707 17.3555 124.434V118.633C17.3555 118.414 17.3516 118.227 17.3438 118.07C17.3203 117.664 17.2656 117.332 17.1797 117.074C16.9609 116.434 16.4688 116.113 15.7031 116.113H12.3398ZM19.9336 118.27C19.9336 118.09 20 117.938 20.1328 117.812C20.2578 117.68 20.4102 117.613 20.5898 117.613C20.7695 117.613 20.9258 117.68 21.0586 117.812C21.1836 117.938 21.2461 118.09 21.2461 118.27V132.027C21.2461 132.207 21.1836 132.359 21.0586 132.484C20.9258 132.609 20.7695 132.672 20.5898 132.672C20.4102 132.672 20.2578 132.609 20.1328 132.484C20 132.359 19.9336 132.207 19.9336 132.027V118.27ZM20.5898 115.855C19.8633 115.855 19.2383 116.113 18.7148 116.629C18.1992 117.152 17.9414 117.777 17.9414 118.504V131.793C17.9414 132.52 18.1992 133.145 18.7148 133.668C19.2383 134.184 19.8633 134.441 20.5898 134.441C21.3242 134.441 21.9492 134.184 22.4648 133.668C22.9883 133.145 23.25 132.52 23.25 131.793V118.504C23.25 117.777 22.9883 117.152 22.4648 116.629C21.9492 116.113 21.3242 115.855 20.5898 115.855ZM26.4961 115.879C25.7695 115.879 25.1445 116.141 24.6211 116.664C24.1055 117.18 23.8477 117.801 23.8477 118.527V123.555C23.8477 124.227 24.0742 124.816 24.5273 125.324C25.0508 125.91 25.6875 126.203 26.4375 126.203H26.5664C26.957 126.203 27.1523 126.422 27.1523 126.859V132.027C27.1523 132.207 27.0898 132.359 26.9648 132.484C26.832 132.609 26.6758 132.672 26.4961 132.672C26.3164 132.672 26.1641 132.609 26.0391 132.484C25.9141 132.359 25.8516 132.207 25.8516 132.027V127.07H23.8477V132.051C23.9102 132.723 24.1953 133.289 24.7031 133.75C25.2109 134.211 25.8086 134.441 26.4961 134.441C27.1914 134.441 27.793 134.211 28.3008 133.75C28.8086 133.289 29.0938 132.719 29.1562 132.039V132.027V126.848C29.1719 126.371 29.0859 125.898 28.8984 125.43C28.7344 125.016 28.5039 124.688 28.207 124.445C27.832 124.148 27.3672 124 26.8125 124H26.4375C26.2656 124 26.1211 123.938 26.0039 123.812C25.9023 123.688 25.8516 123.535 25.8516 123.355V118.305C25.8516 118.117 25.9141 117.961 26.0391 117.836C26.1641 117.711 26.3164 117.648 26.4961 117.648C26.6758 117.648 26.832 117.711 26.9648 117.836C27.0898 117.961 27.1523 118.117 27.1523 118.305V123.273H29.1562V118.527C29.1562 117.801 28.8945 117.18 28.3711 116.664C27.8555 116.141 27.2305 115.879 26.4961 115.879ZM32.4258 115.879C31.6992 115.879 31.0742 116.141 30.5508 116.664C30.0352 117.18 29.7773 117.801 29.7773 118.527V123.555C29.7773 124.227 30.0039 124.816 30.457 125.324C30.9805 125.91 31.6172 126.203 32.3672 126.203H32.4961C32.8867 126.203 33.082 126.422 33.082 126.859V132.027C33.082 132.207 33.0195 132.359 32.8945 132.484C32.7617 132.609 32.6055 132.672 32.4258 132.672C32.2461 132.672 32.0938 132.609 31.9688 132.484C31.8438 132.359 31.7812 132.207 31.7812 132.027V127.07H29.7773V132.051C29.8398 132.723 30.125 133.289 30.6328 133.75C31.1406 134.211 31.7383 134.441 32.4258 134.441C33.1211 134.441 33.7227 134.211 34.2305 133.75C34.7383 133.289 35.0234 132.719 35.0859 132.039V132.027V126.848C35.1016 126.371 35.0156 125.898 34.8281 125.43C34.6641 125.016 34.4336 124.688 34.1367 124.445C33.7617 124.148 33.2969 124 32.7422 124H32.3672C32.1953 124 32.0508 123.938 31.9336 123.812C31.832 123.688 31.7812 123.535 31.7812 123.355V118.305C31.7812 118.117 31.8438 117.961 31.9688 117.836C32.0938 117.711 32.2461 117.648 32.4258 117.648C32.6055 117.648 32.7617 117.711 32.8945 117.836C33.0195 117.961 33.082 118.117 33.082 118.305V123.273H35.0859V118.527C35.0859 117.801 34.8242 117.18 34.3008 116.664C33.7852 116.141 33.1602 115.879 32.4258 115.879Z" fill="white"/>
<path d="M61.5234 94.3438H57.5859V58.2266H61.5234V94.3438ZM71.8594 58.2266H62.6953V62.1641H65.3203V94.3438H69.2344V62.1641H71.8594V58.2266ZM77.8828 57.7578C76.4297 57.7578 75.1797 58.2812 74.1328 59.3281C73.1016 60.3594 72.5859 61.6016 72.5859 63.0547V73.1094C72.5859 74.4531 73.0391 75.6328 73.9453 76.6484C74.9922 77.8203 76.2656 78.4062 77.7656 78.4062H78.0234C78.8047 78.4062 79.1953 78.8438 79.1953 79.7188V90.0547C79.1953 90.4141 79.0703 90.7188 78.8203 90.9688C78.5547 91.2188 78.2422 91.3438 77.8828 91.3438C77.5234 91.3438 77.2188 91.2188 76.9688 90.9688C76.7188 90.7188 76.5938 90.4141 76.5938 90.0547V80.1406H72.5859V90.1016C72.7109 91.4453 73.2812 92.5781 74.2969 93.5C75.3125 94.4219 76.5078 94.8828 77.8828 94.8828C79.2734 94.8828 80.4766 94.4219 81.4922 93.5C82.5078 92.5781 83.0781 91.4375 83.2031 90.0781V90.0547V79.6953C83.2344 78.7422 83.0625 77.7969 82.6875 76.8594C82.3594 76.0312 81.8984 75.375 81.3047 74.8906C80.5547 74.2969 79.625 74 78.5156 74H77.7656C77.4219 74 77.1328 73.875 76.8984 73.625C76.6953 73.375 76.5938 73.0703 76.5938 72.7109V62.6094C76.5938 62.2344 76.7188 61.9219 76.9688 61.6719C77.2188 61.4219 77.5234 61.2969 77.8828 61.2969C78.2422 61.2969 78.5547 61.4219 78.8203 61.6719C79.0703 61.9219 79.1953 62.2344 79.1953 62.6094V72.5469H83.2031V63.0547C83.2031 61.6016 82.6797 60.3594 81.6328 59.3281C80.6016 58.2812 79.3516 57.7578 77.8828 57.7578ZM88.3828 94.3438H84.4453V90.4062H88.3828V94.3438ZM94.4297 86.8672L95.4375 76.2734L96.4688 86.8672H94.4297ZM97.4062 94.3438H101.344L97.4062 58.2266H93.4922L89.5547 94.3438H93.4922L93.9375 90.7812H96.9609L97.4062 94.3438ZM112.453 72.4766V63.0078C112.453 61.5547 111.93 60.3047 110.883 59.2578C109.852 58.2266 108.602 57.7109 107.133 57.7109C105.68 57.7109 104.43 58.2266 103.383 59.2578C102.352 60.3047 101.836 61.5547 101.836 63.0078V89.5859C101.836 91.0391 102.352 92.2891 103.383 93.3359C104.43 94.3672 105.68 94.8828 107.133 94.8828C108.602 94.8828 109.852 94.3672 110.883 93.3359C111.93 92.2891 112.453 91.0391 112.453 89.5859V74.3047H107.203V78.2422H108.445V90.0547C108.445 90.4141 108.32 90.7188 108.07 90.9688C107.805 91.2188 107.492 91.3438 107.133 91.3438C106.773 91.3438 106.469 91.2188 106.219 90.9688C105.953 90.7188 105.82 90.4141 105.82 90.0547V62.5391C105.82 62.1797 105.953 61.875 106.219 61.625C106.469 61.3594 106.773 61.2266 107.133 61.2266C107.492 61.2266 107.805 61.3594 108.07 61.625C108.32 61.875 108.445 62.1797 108.445 62.5391V72.4766H112.453ZM121.5 62.1641V58.2266H113.648V94.3438H121.5V90.4062H117.586V78.2656H121.5V74.3281H117.586V62.1641H121.5ZM129.234 58.2266V73.9062L126.633 58.2266H122.695V94.3438H126.633V78.5234L129.234 94.3438H133.172V58.2266H129.234ZM140.977 90.0547C140.977 90.4141 140.852 90.7188 140.602 90.9688C140.336 91.2188 140.023 91.3438 139.664 91.3438C139.305 91.3438 139 91.2188 138.75 90.9688C138.484 90.7188 138.352 90.4141 138.352 90.0547V62.5391C138.352 62.1797 138.484 61.875 138.75 61.625C139 61.3594 139.305 61.2266 139.664 61.2266C140.023 61.2266 140.336 61.3594 140.602 61.625C140.852 61.875 140.977 62.1797 140.977 62.5391V70.1328H144.984V63.0078C144.984 61.5547 144.461 60.3047 143.414 59.2578C142.383 58.2266 141.133 57.7109 139.664 57.7109C138.211 57.7109 136.961 58.2266 135.914 59.2578C134.883 60.3047 134.367 61.5547 134.367 63.0078V89.5859C134.367 91.0391 134.883 92.2891 135.914 93.3359C136.961 94.3672 138.211 94.8828 139.664 94.8828C141.133 94.8828 142.383 94.3672 143.414 93.3359C144.461 92.2891 144.984 91.0391 144.984 89.5859V82.4141H140.977V90.0547ZM157.711 58.2266H153.773L151.359 72.4297L148.945 58.2266H145.008L149.367 81.9688H149.391V94.3438H153.328V81.9688H153.352L157.711 58.2266Z" fill="white"/>
<path d="M192.906 58.2266V89.6328C192.906 90.8047 192.445 91.3906 191.523 91.3906C191.133 91.3906 190.82 91.2891 190.586 91.0859V94.7422C190.898 94.8047 191.211 94.8359 191.523 94.8359C195.055 94.8359 196.82 93.5 196.82 90.8281V58.2266H192.906ZM203.289 57.7578C201.836 57.7578 200.586 58.2812 199.539 59.3281C198.508 60.3594 197.992 61.6016 197.992 63.0547V73.1094C197.992 74.4531 198.445 75.6328 199.352 76.6484C200.398 77.8203 201.672 78.4062 203.172 78.4062H203.43C204.211 78.4062 204.602 78.8438 204.602 79.7188V90.0547C204.602 90.4141 204.477 90.7188 204.227 90.9688C203.961 91.2188 203.648 91.3438 203.289 91.3438C202.93 91.3438 202.625 91.2188 202.375 90.9688C202.125 90.7188 202 90.4141 202 90.0547V80.1406H197.992V90.1016C198.117 91.4453 198.688 92.5781 199.703 93.5C200.719 94.4219 201.914 94.8828 203.289 94.8828C204.68 94.8828 205.883 94.4219 206.898 93.5C207.914 92.5781 208.484 91.4375 208.609 90.0781V90.0547V79.6953C208.641 78.7422 208.469 77.7969 208.094 76.8594C207.766 76.0312 207.305 75.375 206.711 74.8906C205.961 74.2969 205.031 74 203.922 74H203.172C202.828 74 202.539 73.875 202.305 73.625C202.102 73.375 202 73.0703 202 72.7109V62.6094C202 62.2344 202.125 61.9219 202.375 61.6719C202.625 61.4219 202.93 61.2969 203.289 61.2969C203.648 61.2969 203.961 61.4219 204.227 61.6719C204.477 61.9219 204.602 62.2344 204.602 62.6094V72.5469H208.609V63.0547C208.609 61.6016 208.086 60.3594 207.039 59.3281C206.008 58.2812 204.758 57.7578 203.289 57.7578ZM219.508 57.7578C218.055 57.7578 216.805 58.2812 215.758 59.3281C214.727 60.3594 214.211 61.6016 214.211 63.0547V73.1094C214.211 74.4531 214.664 75.6328 215.57 76.6484C216.617 77.8203 217.891 78.4062 219.391 78.4062H219.648C220.43 78.4062 220.82 78.8438 220.82 79.7188V90.0547C220.82 90.4141 220.695 90.7188 220.445 90.9688C220.18 91.2188 219.867 91.3438 219.508 91.3438C219.148 91.3438 218.844 91.2188 218.594 90.9688C218.344 90.7188 218.219 90.4141 218.219 90.0547V80.1406H214.211V90.1016C214.336 91.4453 214.906 92.5781 215.922 93.5C216.938 94.4219 218.133 94.8828 219.508 94.8828C220.898 94.8828 222.102 94.4219 223.117 93.5C224.133 92.5781 224.703 91.4375 224.828 90.0781V90.0547V79.6953C224.859 78.7422 224.688 77.7969 224.312 76.8594C223.984 76.0312 223.523 75.375 222.93 74.8906C222.18 74.2969 221.25 74 220.141 74H219.391C219.047 74 218.758 73.875 218.523 73.625C218.32 73.375 218.219 73.0703 218.219 72.7109V62.6094C218.219 62.2344 218.344 61.9219 218.594 61.6719C218.844 61.4219 219.148 61.2969 219.508 61.2969C219.867 61.2969 220.18 61.4219 220.445 61.6719C220.695 61.9219 220.82 62.2344 220.82 62.6094V72.5469H224.828V63.0547C224.828 61.6016 224.305 60.3594 223.258 59.3281C222.227 58.2812 220.977 57.7578 219.508 57.7578ZM230.242 86.8672L231.25 76.2734L232.281 86.8672H230.242ZM233.219 94.3438H237.156L233.219 58.2266H229.305L225.367 94.3438H229.305L229.75 90.7812H232.773L233.219 94.3438ZM242.945 57.7578C241.492 57.7578 240.242 58.2812 239.195 59.3281C238.164 60.3594 237.648 61.6016 237.648 63.0547V73.1094C237.648 74.4531 238.102 75.6328 239.008 76.6484C240.055 77.8203 241.328 78.4062 242.828 78.4062H243.086C243.867 78.4062 244.258 78.8438 244.258 79.7188V90.0547C244.258 90.4141 244.133 90.7188 243.883 90.9688C243.617 91.2188 243.305 91.3438 242.945 91.3438C242.586 91.3438 242.281 91.2188 242.031 90.9688C241.781 90.7188 241.656 90.4141 241.656 90.0547V80.1406H237.648V90.1016C237.773 91.4453 238.344 92.5781 239.359 93.5C240.375 94.4219 241.57 94.8828 242.945 94.8828C244.336 94.8828 245.539 94.4219 246.555 93.5C247.57 92.5781 248.141 91.4375 248.266 90.0781V90.0547V79.6953C248.297 78.7422 248.125 77.7969 247.75 76.8594C247.422 76.0312 246.961 75.375 246.367 74.8906C245.617 74.2969 244.688 74 243.578 74H242.828C242.484 74 242.195 73.875 241.961 73.625C241.758 73.375 241.656 73.0703 241.656 72.7109V62.6094C241.656 62.2344 241.781 61.9219 242.031 61.6719C242.281 61.4219 242.586 61.2969 242.945 61.2969C243.305 61.2969 243.617 61.4219 243.883 61.6719C244.133 61.9219 244.258 62.2344 244.258 62.6094V72.5469H248.266V63.0547C248.266 61.6016 247.742 60.3594 246.695 59.3281C245.664 58.2812 244.414 57.7578 242.945 57.7578ZM254.805 57.7578C253.352 57.7578 252.102 58.2812 251.055 59.3281C250.023 60.3594 249.508 61.6016 249.508 63.0547V73.1094C249.508 74.4531 249.961 75.6328 250.867 76.6484C251.914 77.8203 253.188 78.4062 254.688 78.4062H254.945C255.727 78.4062 256.117 78.8438 256.117 79.7188V90.0547C256.117 90.4141 255.992 90.7188 255.742 90.9688C255.477 91.2188 255.164 91.3438 254.805 91.3438C254.445 91.3438 254.141 91.2188 253.891 90.9688C253.641 90.7188 253.516 90.4141 253.516 90.0547V80.1406H249.508V90.1016C249.633 91.4453 250.203 92.5781 251.219 93.5C252.234 94.4219 253.43 94.8828 254.805 94.8828C256.195 94.8828 257.398 94.4219 258.414 93.5C259.43 92.5781 260 91.4375 260.125 90.0781V90.0547V79.6953C260.156 78.7422 259.984 77.7969 259.609 76.8594C259.281 76.0312 258.82 75.375 258.227 74.8906C257.477 74.2969 256.547 74 255.438 74H254.688C254.344 74 254.055 73.875 253.82 73.625C253.617 73.375 253.516 73.0703 253.516 72.7109V62.6094C253.516 62.2344 253.641 61.9219 253.891 61.6719C254.141 61.4219 254.445 61.2969 254.805 61.2969C255.164 61.2969 255.477 61.4219 255.742 61.6719C255.992 61.9219 256.117 62.2344 256.117 62.6094V72.5469H260.125V63.0547C260.125 61.6016 259.602 60.3594 258.555 59.3281C257.523 58.2812 256.273 57.7578 254.805 57.7578ZM276.344 72.4766V63.0078C276.344 61.5547 275.82 60.3047 274.773 59.2578C273.742 58.2266 272.492 57.7109 271.023 57.7109C269.57 57.7109 268.32 58.2266 267.273 59.2578C266.242 60.3047 265.727 61.5547 265.727 63.0078V89.5859C265.727 91.0391 266.242 92.2891 267.273 93.3359C268.32 94.3672 269.57 94.8828 271.023 94.8828C272.492 94.8828 273.742 94.3672 274.773 93.3359C275.82 92.2891 276.344 91.0391 276.344 89.5859V74.3047H271.094V78.2422H272.336V90.0547C272.336 90.4141 272.211 90.7188 271.961 90.9688C271.695 91.2188 271.383 91.3438 271.023 91.3438C270.664 91.3438 270.359 91.2188 270.109 90.9688C269.844 90.7188 269.711 90.4141 269.711 90.0547V62.5391C269.711 62.1797 269.844 61.875 270.109 61.625C270.359 61.3594 270.664 61.2266 271.023 61.2266C271.383 61.2266 271.695 61.3594 271.961 61.625C272.211 61.875 272.336 62.1797 272.336 62.5391V72.4766H276.344ZM282.836 57.7578C281.383 57.7578 280.133 58.2812 279.086 59.3281C278.055 60.3594 277.539 61.6016 277.539 63.0547V73.1094C277.539 74.4531 277.992 75.6328 278.898 76.6484C279.945 77.8203 281.219 78.4062 282.719 78.4062H282.977C283.758 78.4062 284.148 78.8438 284.148 79.7188V90.0547C284.148 90.4141 284.023 90.7188 283.773 90.9688C283.508 91.2188 283.195 91.3438 282.836 91.3438C282.477 91.3438 282.172 91.2188 281.922 90.9688C281.672 90.7188 281.547 90.4141 281.547 90.0547V80.1406H277.539V90.1016C277.664 91.4453 278.234 92.5781 279.25 93.5C280.266 94.4219 281.461 94.8828 282.836 94.8828C284.227 94.8828 285.43 94.4219 286.445 93.5C287.461 92.5781 288.031 91.4375 288.156 90.0781V90.0547V79.6953C288.188 78.7422 288.016 77.7969 287.641 76.8594C287.312 76.0312 286.852 75.375 286.258 74.8906C285.508 74.2969 284.578 74 283.469 74H282.719C282.375 74 282.086 73.875 281.852 73.625C281.648 73.375 281.547 73.0703 281.547 72.7109V62.6094C281.547 62.2344 281.672 61.9219 281.922 61.6719C282.172 61.4219 282.477 61.2969 282.836 61.2969C283.195 61.2969 283.508 61.4219 283.773 61.6719C284.023 61.9219 284.148 62.2344 284.148 62.6094V72.5469H288.156V63.0547C288.156 61.6016 287.633 60.3594 286.586 59.3281C285.555 58.2812 284.305 57.7578 282.836 57.7578ZM293.57 86.8672L294.578 76.2734L295.609 86.8672H293.57ZM296.547 94.3438H300.484L296.547 58.2266H292.633L288.695 94.3438H292.633L293.078 90.7812H296.102L296.547 94.3438ZM307.844 79.0859C307.844 79.7891 307.617 80.2734 307.164 80.5391C306.945 80.6641 306.719 80.7188 306.484 80.7031H305.617V62.2578H306.484C306.719 62.2422 306.945 62.2969 307.164 62.4219C307.617 62.6875 307.844 63.1719 307.844 63.875V79.0859ZM311.711 63.2656C311.711 62.8281 311.703 62.4531 311.688 62.1406C311.641 61.3281 311.531 60.6641 311.359 60.1484C310.922 58.8672 309.938 58.2266 308.406 58.2266H301.68V94.3438H305.617V84.7344H308.406C309.938 84.7344 310.922 84.0938 311.359 82.8125C311.531 82.3125 311.641 81.6484 311.688 80.8203C311.703 80.5078 311.711 80.1328 311.711 79.6953V63.2656ZM325.094 58.2266L323.125 73.9531L321.18 58.2266H317.242L321.18 94.3438H325.094L329.031 58.2266H325.094ZM336.836 90.0547C336.836 90.4141 336.711 90.7188 336.461 90.9688C336.195 91.2188 335.883 91.3438 335.523 91.3438C335.164 91.3438 334.859 91.2188 334.609 90.9688C334.344 90.7188 334.211 90.4141 334.211 90.0547V58.2266H330.227V89.5859C330.227 91.0391 330.742 92.2891 331.773 93.3359C332.82 94.3672 334.07 94.8828 335.523 94.8828C336.992 94.8828 338.242 94.3672 339.273 93.3359C340.32 92.2891 340.844 91.0391 340.844 89.5859V58.2266H336.836V90.0547ZM349.891 62.1641V58.2266H342.039V94.3438H349.891V90.4062H345.977V78.2656H349.891V74.3281H345.977V62.1641H349.891ZM361.984 58.2266V73.9062L359.383 58.2266H355.445V94.3438H359.383V78.5234L361.984 94.3438H365.922V58.2266H361.984ZM373.727 90.0547C373.727 90.4141 373.602 90.7188 373.352 90.9688C373.086 91.2188 372.773 91.3438 372.414 91.3438C372.055 91.3438 371.75 91.2188 371.5 90.9688C371.234 90.7188 371.102 90.4141 371.102 90.0547V58.2266H367.117V89.5859C367.117 91.0391 367.633 92.2891 368.664 93.3359C369.711 94.3672 370.961 94.8828 372.414 94.8828C373.883 94.8828 375.133 94.3672 376.164 93.3359C377.211 92.2891 377.734 91.0391 377.734 89.5859V58.2266H373.727V90.0547ZM390.273 94.3438L386.57 76.2734L390.273 58.2266H386.359L384.602 67.9766L382.867 58.2266H378.93L382.633 76.2969L378.93 94.3438H382.867L384.602 84.5938L386.359 94.3438H390.273ZM400.609 58.2266H391.445V62.1641H394.07V94.3438H397.984V62.1641H400.609V58.2266ZM420.156 58.2266L418.82 73.625L417.109 58.2266H413.148L411.438 73.625L410.102 58.2266H406.164L409.211 94.3438H413.148L415.117 73.8125L417.109 94.3438H421.047L424.094 58.2266H420.156ZM433.141 62.1641V58.2266H425.289V94.3438H433.141V90.4062H429.227V78.2656H433.141V74.3281H429.227V62.1641H433.141ZM440.5 71.7266C440.5 72.4297 440.273 72.9141 439.82 73.1797C439.586 73.3047 439.352 73.3672 439.117 73.3672H438.273V62.2578H439.141C439.375 62.2422 439.602 62.2969 439.82 62.4219C440.273 62.6875 440.5 63.1719 440.5 63.875V71.7266ZM440.5 88.7656C440.5 89.4531 440.273 89.9297 439.82 90.1953C439.586 90.3359 439.352 90.3984 439.117 90.3828H438.273V77.9844H439.141C439.375 77.9688 439.602 78.0234 439.82 78.1484C440.273 78.3984 440.5 78.8828 440.5 79.6016V88.7656ZM444.367 80.1406C444.367 78.375 443.82 76.8828 442.727 75.6641C443.82 74.4453 444.367 72.9531 444.367 71.1875L444.391 63.8047V63.1953C444.391 62.7109 444.391 62.3203 444.391 62.0234C444.359 61.1953 444.266 60.5391 444.109 60.0547C443.719 58.8359 442.703 58.2266 441.062 58.2266H434.336V94.3438H440.641C442.5 94.3438 443.648 93.75 444.086 92.5625C444.258 92.0781 444.359 91.4219 444.391 90.5938C444.391 90.3125 444.391 89.9297 444.391 89.4453V88.8359L444.367 80.1406ZM451.75 79.0859C451.75 79.7891 451.523 80.2734 451.07 80.5391C450.852 80.6641 450.625 80.7188 450.391 80.7031H449.523V62.2578H450.391C450.625 62.2422 450.852 62.2969 451.07 62.4219C451.523 62.6875 451.75 63.1719 451.75 63.875V79.0859ZM455.617 63.2656C455.617 62.8281 455.609 62.4531 455.594 62.1406C455.547 61.3281 455.438 60.6641 455.266 60.1484C454.828 58.8672 453.844 58.2266 452.312 58.2266H445.586V94.3438H449.523V84.7344H452.312C453.844 84.7344 454.828 84.0938 455.266 82.8125C455.438 82.3125 455.547 81.6484 455.594 80.8203C455.609 80.5078 455.617 80.1328 455.617 79.6953V63.2656ZM459.789 86.8672L460.797 76.2734L461.828 86.8672H459.789ZM462.766 94.3438H466.703L462.766 58.2266H458.852L454.914 94.3438H458.852L459.297 90.7812H462.32L462.766 94.3438ZM473.805 90.0547C473.805 90.4141 473.68 90.7188 473.43 90.9688C473.164 91.2188 472.852 91.3438 472.492 91.3438C472.133 91.3438 471.828 91.2188 471.578 90.9688C471.312 90.7188 471.18 90.4141 471.18 90.0547V62.5391C471.18 62.1797 471.312 61.875 471.578 61.625C471.828 61.3594 472.133 61.2266 472.492 61.2266C472.852 61.2266 473.164 61.3594 473.43 61.625C473.68 61.875 473.805 62.1797 473.805 62.5391V70.1328H477.812V63.0078C477.812 61.5547 477.289 60.3047 476.242 59.2578C475.211 58.2266 473.961 57.7109 472.492 57.7109C471.039 57.7109 469.789 58.2266 468.742 59.2578C467.711 60.3047 467.195 61.5547 467.195 63.0078V89.5859C467.195 91.0391 467.711 92.2891 468.742 93.3359C469.789 94.3672 471.039 94.8828 472.492 94.8828C473.961 94.8828 475.211 94.3672 476.242 93.3359C477.289 92.2891 477.812 91.0391 477.812 89.5859V82.4141H473.805V90.0547ZM490.352 58.2266H486.438L482.945 74.5391V58.2266H479.008V94.3438H482.945V78.0312L486.438 94.3438H490.352L486.438 76.2969L490.352 58.2266ZM506.5 72.4766V63.0078C506.5 61.5547 505.977 60.3047 504.93 59.2578C503.898 58.2266 502.648 57.7109 501.18 57.7109C499.727 57.7109 498.477 58.2266 497.43 59.2578C496.398 60.3047 495.883 61.5547 495.883 63.0078V89.5859C495.883 91.0391 496.398 92.2891 497.43 93.3359C498.477 94.3672 499.727 94.8828 501.18 94.8828C502.648 94.8828 503.898 94.3672 504.93 93.3359C505.977 92.2891 506.5 91.0391 506.5 89.5859V74.3047H501.25V78.2422H502.492V90.0547C502.492 90.4141 502.367 90.7188 502.117 90.9688C501.852 91.2188 501.539 91.3438 501.18 91.3438C500.82 91.3438 500.516 91.2188 500.266 90.9688C500 90.7188 499.867 90.4141 499.867 90.0547V62.5391C499.867 62.1797 500 61.875 500.266 61.625C500.516 61.3594 500.82 61.2266 501.18 61.2266C501.539 61.2266 501.852 61.3594 502.117 61.625C502.367 61.875 502.492 62.1797 502.492 62.5391V72.4766H506.5ZM514.305 90.0547C514.305 90.4141 514.18 90.7188 513.93 90.9688C513.664 91.2188 513.352 91.3438 512.992 91.3438C512.633 91.3438 512.328 91.2188 512.078 90.9688C511.812 90.7188 511.68 90.4141 511.68 90.0547V58.2266H507.695V89.5859C507.695 91.0391 508.211 92.2891 509.242 93.3359C510.289 94.3672 511.539 94.8828 512.992 94.8828C514.461 94.8828 515.711 94.3672 516.742 93.3359C517.789 92.2891 518.312 91.0391 518.312 89.5859V58.2266H514.305V90.0547ZM523.445 90.4062V58.2266H519.508V94.3438H527.359V90.4062H523.445ZM534.719 79.0859C534.719 79.7891 534.492 80.2734 534.039 80.5391C533.82 80.6641 533.594 80.7188 533.359 80.7031H532.492V62.2578H533.359C533.594 62.2422 533.82 62.2969 534.039 62.4219C534.492 62.6875 534.719 63.1719 534.719 63.875V79.0859ZM538.586 63.2656C538.586 62.8281 538.578 62.4531 538.562 62.1406C538.516 61.3281 538.406 60.6641 538.234 60.1484C537.797 58.8672 536.812 58.2266 535.281 58.2266H528.555V94.3438H532.492V84.7344H535.281C536.812 84.7344 537.797 84.0938 538.234 82.8125C538.406 82.3125 538.516 81.6484 538.562 80.8203C538.578 80.5078 538.586 80.1328 538.586 79.6953V63.2656ZM550.281 79.0859C550.281 79.7891 550.055 80.2734 549.602 80.5391C549.383 80.6641 549.156 80.7188 548.922 80.7031H548.055V62.2578H548.922C549.156 62.2422 549.383 62.2969 549.602 62.4219C550.055 62.6875 550.281 63.1719 550.281 63.875V79.0859ZM554.148 63.2656C554.148 62.8281 554.141 62.4531 554.125 62.1406C554.078 61.3281 553.969 60.6641 553.797 60.1484C553.359 58.8672 552.375 58.2266 550.844 58.2266H544.117V94.3438H548.055V84.7344H550.844C552.375 84.7344 553.359 84.0938 553.797 82.8125C553.969 82.3125 554.078 81.6484 554.125 80.8203C554.141 80.5078 554.148 80.1328 554.148 79.6953V63.2656ZM561.93 90.0547C561.93 90.4141 561.805 90.7188 561.555 90.9688C561.289 91.2188 560.977 91.3438 560.617 91.3438C560.258 91.3438 559.953 91.2188 559.703 90.9688C559.438 90.7188 559.305 90.4141 559.305 90.0547V58.2266H555.32V89.5859C555.32 91.0391 555.836 92.2891 556.867 93.3359C557.914 94.3672 559.164 94.8828 560.617 94.8828C562.086 94.8828 563.336 94.3672 564.367 93.3359C565.414 92.2891 565.938 91.0391 565.938 89.5859V58.2266H561.93V90.0547ZM577.75 72.4766V63.0078C577.75 61.5547 577.227 60.3047 576.18 59.2578C575.148 58.2266 573.898 57.7109 572.43 57.7109C570.977 57.7109 569.727 58.2266 568.68 59.2578C567.648 60.3047 567.133 61.5547 567.133 63.0078V89.5859C567.133 91.0391 567.648 92.2891 568.68 93.3359C569.727 94.3672 570.977 94.8828 572.43 94.8828C573.898 94.8828 575.148 94.3672 576.18 93.3359C577.227 92.2891 577.75 91.0391 577.75 89.5859V74.3047H572.5V78.2422H573.742V90.0547C573.742 90.4141 573.617 90.7188 573.367 90.9688C573.102 91.2188 572.789 91.3438 572.43 91.3438C572.07 91.3438 571.766 91.2188 571.516 90.9688C571.25 90.7188 571.117 90.4141 571.117 90.0547V62.5391C571.117 62.1797 571.25 61.875 571.516 61.625C571.766 61.3594 572.07 61.2266 572.43 61.2266C572.789 61.2266 573.102 61.3594 573.367 61.625C573.617 61.875 573.742 62.1797 573.742 62.5391V72.4766H577.75ZM589.914 90.0547C589.914 90.4141 589.789 90.7188 589.539 90.9688C589.273 91.2188 588.961 91.3438 588.602 91.3438C588.242 91.3438 587.938 91.2188 587.688 90.9688C587.422 90.7188 587.289 90.4141 587.289 90.0547V62.5391C587.289 62.1797 587.422 61.875 587.688 61.625C587.938 61.3594 588.242 61.2266 588.602 61.2266C588.961 61.2266 589.273 61.3594 589.539 61.625C589.789 61.875 589.914 62.1797 589.914 62.5391V70.1328H593.922V63.0078C593.922 61.5547 593.398 60.3047 592.352 59.2578C591.32 58.2266 590.07 57.7109 588.602 57.7109C587.148 57.7109 585.898 58.2266 584.852 59.2578C583.82 60.3047 583.305 61.5547 583.305 63.0078V89.5859C583.305 91.0391 583.82 92.2891 584.852 93.3359C585.898 94.3672 587.148 94.8828 588.602 94.8828C590.07 94.8828 591.32 94.3672 592.352 93.3359C593.398 92.2891 593.922 91.0391 593.922 89.5859V82.4141H589.914V90.0547ZM599.102 62.5391C599.102 62.1797 599.234 61.875 599.5 61.625C599.75 61.3594 600.055 61.2266 600.414 61.2266C600.773 61.2266 601.086 61.3594 601.352 61.625C601.602 61.875 601.727 62.1797 601.727 62.5391V90.0547C601.727 90.4141 601.602 90.7188 601.352 90.9688C601.086 91.2188 600.773 91.3438 600.414 91.3438C600.055 91.3438 599.75 91.2188 599.5 90.9688C599.234 90.7188 599.102 90.4141 599.102 90.0547V62.5391ZM600.414 57.7109C598.961 57.7109 597.711 58.2266 596.664 59.2578C595.633 60.3047 595.117 61.5547 595.117 63.0078V89.5859C595.117 91.0391 595.633 92.2891 596.664 93.3359C597.711 94.3672 598.961 94.8828 600.414 94.8828C601.883 94.8828 603.133 94.3672 604.164 93.3359C605.211 92.2891 605.734 91.0391 605.734 89.5859V63.0078C605.734 61.5547 605.211 60.3047 604.164 59.2578C603.133 58.2266 601.883 57.7109 600.414 57.7109ZM613.469 58.2266V73.9062L610.867 58.2266H606.93V94.3438H610.867V78.5234L613.469 94.3438H617.406V58.2266H613.469ZM627.766 58.2266H618.602V62.1641H621.227V94.3438H625.141V62.1641H627.766V58.2266ZM636.812 62.1641V58.2266H628.961V94.3438H636.812V90.4062H632.898V78.2656H636.812V74.3281H632.898V62.1641H636.812ZM644.547 58.2266V73.9062L641.945 58.2266H638.008V94.3438H641.945V78.5234L644.547 94.3438H648.484V58.2266H644.547ZM658.844 58.2266H649.68V62.1641H652.305V94.3438H656.219V62.1641H658.844V58.2266ZM667.891 62.1641V58.2266H660.039V94.3438H663.977V78.2656H666.672V74.3281H663.977V62.1641H667.891ZM675.695 90.0547C675.695 90.4141 675.57 90.7188 675.32 90.9688C675.055 91.2188 674.742 91.3438 674.383 91.3438C674.023 91.3438 673.719 91.2188 673.469 90.9688C673.203 90.7188 673.07 90.4141 673.07 90.0547V58.2266H669.086V89.5859C669.086 91.0391 669.602 92.2891 670.633 93.3359C671.68 94.3672 672.93 94.8828 674.383 94.8828C675.852 94.8828 677.102 94.3672 678.133 93.3359C679.18 92.2891 679.703 91.0391 679.703 89.5859V58.2266H675.695V90.0547ZM684.836 90.4062V58.2266H680.898V94.3438H688.75V90.4062H684.836Z" fill="white"/>
<path d="M7.28906 75.1133L6.62109 82.8125L5.76562 75.1133H3.78516L2.92969 82.8125L2.26172 75.1133H0.292969L1.81641 93.1719H3.78516L4.76953 82.9062L5.76562 93.1719H7.73438L9.25781 75.1133H7.28906ZM11.4961 77.2695C11.4961 77.0898 11.5625 76.9375 11.6953 76.8125C11.8203 76.6797 11.9727 76.6133 12.1523 76.6133C12.332 76.6133 12.4883 76.6797 12.6211 76.8125C12.7461 76.9375 12.8086 77.0898 12.8086 77.2695V91.0273C12.8086 91.207 12.7461 91.3594 12.6211 91.4844C12.4883 91.6094 12.332 91.6719 12.1523 91.6719C11.9727 91.6719 11.8203 91.6094 11.6953 91.4844C11.5625 91.3594 11.4961 91.207 11.4961 91.0273V77.2695ZM12.1523 74.8555C11.4258 74.8555 10.8008 75.1133 10.2773 75.6289C9.76172 76.1523 9.50391 76.7773 9.50391 77.5039V90.793C9.50391 91.5195 9.76172 92.1445 10.2773 92.668C10.8008 93.1836 11.4258 93.4414 12.1523 93.4414C12.8867 93.4414 13.5117 93.1836 14.0273 92.668C14.5508 92.1445 14.8125 91.5195 14.8125 90.793V77.5039C14.8125 76.7773 14.5508 76.1523 14.0273 75.6289C13.5117 75.1133 12.8867 74.8555 12.1523 74.8555ZM17.3789 77.1289H17.8125C17.9297 77.1211 18.043 77.1484 18.1523 77.2109C18.3789 77.3438 18.4922 77.5859 18.4922 77.9375V83.7148C18.4922 84.0742 18.3789 84.3164 18.1523 84.4414C18.043 84.5039 17.9297 84.5312 17.8125 84.5234H17.3789V77.1289ZM15.4102 75.1133V93.1719H17.3789V86.5859H17.707C17.8164 86.5781 17.9297 86.6055 18.0469 86.668C18.1484 86.7227 18.2266 86.8008 18.2812 86.9023C18.3516 87.0352 18.3867 87.1992 18.3867 87.3945V93.1719H20.3203V87.8398V87.418C20.3125 87.1133 20.293 86.8594 20.2617 86.6562C20.1836 86.1172 20.0078 85.7266 19.7344 85.4844C19.9609 85.1641 20.1406 84.793 20.2734 84.3711C20.375 84.0195 20.4258 83.707 20.4258 83.4336V77.6328C20.4258 77.4141 20.4219 77.2266 20.4141 77.0703C20.3906 76.6641 20.3359 76.332 20.25 76.0742C20.0312 75.4336 19.5391 75.1133 18.7734 75.1133H15.4102ZM26.6836 75.1133H24.7266L22.9805 83.2695V75.1133H21.0117V93.1719H22.9805V85.0156L24.7266 93.1719H26.6836L24.7266 84.1484L26.6836 75.1133ZM29.2383 93.1719H27.2695V75.1133H29.2383V93.1719ZM33.0938 75.1133V82.9531L31.793 75.1133H29.8242V93.1719H31.793V85.2617L33.0938 93.1719H35.0625V75.1133H33.0938ZM40.9688 82.2383V77.5039C40.9688 76.7773 40.707 76.1523 40.1836 75.6289C39.668 75.1133 39.043 74.8555 38.3086 74.8555C37.582 74.8555 36.957 75.1133 36.4336 75.6289C35.918 76.1523 35.6602 76.7773 35.6602 77.5039V90.793C35.6602 91.5195 35.918 92.1445 36.4336 92.668C36.957 93.1836 37.582 93.4414 38.3086 93.4414C39.043 93.4414 39.668 93.1836 40.1836 92.668C40.707 92.1445 40.9688 91.5195 40.9688 90.793V83.1523H38.3438V85.1211H38.9648V91.0273C38.9648 91.207 38.9023 91.3594 38.7773 91.4844C38.6445 91.6094 38.4883 91.6719 38.3086 91.6719C38.1289 91.6719 37.9766 91.6094 37.8516 91.4844C37.7188 91.3594 37.6523 91.207 37.6523 91.0273V77.2695C37.6523 77.0898 37.7188 76.9375 37.8516 76.8125C37.9766 76.6797 38.1289 76.6133 38.3086 76.6133C38.4883 76.6133 38.6445 76.6797 38.7773 76.8125C38.9023 76.9375 38.9648 77.0898 38.9648 77.2695V82.2383H40.9688ZM45.7148 93.1719H43.7461V75.1133H45.7148V93.1719ZM49.5703 75.1133V82.9531L48.2695 75.1133H46.3008V93.1719H48.2695V85.2617L49.5703 93.1719H51.5391V75.1133H49.5703Z" fill="white"/>
<path d="M164.598 91.0273C164.598 91.207 164.535 91.3594 164.41 91.4844C164.277 91.6094 164.121 91.6719 163.941 91.6719C163.762 91.6719 163.609 91.6094 163.484 91.4844C163.352 91.3594 163.285 91.207 163.285 91.0273V75.1133H161.293V90.793C161.293 91.5195 161.551 92.1445 162.066 92.668C162.59 93.1836 163.215 93.4414 163.941 93.4414C164.676 93.4414 165.301 93.1836 165.816 92.668C166.34 92.1445 166.602 91.5195 166.602 90.793V75.1133H164.598V91.0273ZM169.848 74.8789C169.121 74.8789 168.496 75.1406 167.973 75.6641C167.457 76.1797 167.199 76.8008 167.199 77.5273V82.5547C167.199 83.2266 167.426 83.8164 167.879 84.3242C168.402 84.9102 169.039 85.2031 169.789 85.2031H169.918C170.309 85.2031 170.504 85.4219 170.504 85.8594V91.0273C170.504 91.207 170.441 91.3594 170.316 91.4844C170.184 91.6094 170.027 91.6719 169.848 91.6719C169.668 91.6719 169.516 91.6094 169.391 91.4844C169.266 91.3594 169.203 91.207 169.203 91.0273V86.0703H167.199V91.0508C167.262 91.7227 167.547 92.2891 168.055 92.75C168.562 93.2109 169.16 93.4414 169.848 93.4414C170.543 93.4414 171.145 93.2109 171.652 92.75C172.16 92.2891 172.445 91.7188 172.508 91.0391V91.0273V85.8477C172.523 85.3711 172.438 84.8984 172.25 84.4297C172.086 84.0156 171.855 83.6875 171.559 83.4453C171.184 83.1484 170.719 83 170.164 83H169.789C169.617 83 169.473 82.9375 169.355 82.8125C169.254 82.6875 169.203 82.5352 169.203 82.3555V77.3047C169.203 77.1172 169.266 76.9609 169.391 76.8359C169.516 76.7109 169.668 76.6484 169.848 76.6484C170.027 76.6484 170.184 76.7109 170.316 76.8359C170.441 76.9609 170.504 77.1172 170.504 77.3047V82.2734H172.508V77.5273C172.508 76.8008 172.246 76.1797 171.723 75.6641C171.207 75.1406 170.582 74.8789 169.848 74.8789ZM175.098 93.1719H173.129V75.1133H175.098V93.1719ZM178.953 75.1133V82.9531L177.652 75.1133H175.684V93.1719H177.652V85.2617L178.953 93.1719H180.922V75.1133H178.953ZM186.828 82.2383V77.5039C186.828 76.7773 186.566 76.1523 186.043 75.6289C185.527 75.1133 184.902 74.8555 184.168 74.8555C183.441 74.8555 182.816 75.1133 182.293 75.6289C181.777 76.1523 181.52 76.7773 181.52 77.5039V90.793C181.52 91.5195 181.777 92.1445 182.293 92.668C182.816 93.1836 183.441 93.4414 184.168 93.4414C184.902 93.4414 185.527 93.1836 186.043 92.668C186.566 92.1445 186.828 91.5195 186.828 90.793V83.1523H184.203V85.1211H184.824V91.0273C184.824 91.207 184.762 91.3594 184.637 91.4844C184.504 91.6094 184.348 91.6719 184.168 91.6719C183.988 91.6719 183.836 91.6094 183.711 91.4844C183.578 91.3594 183.512 91.207 183.512 91.0273V77.2695C183.512 77.0898 183.578 76.9375 183.711 76.8125C183.836 76.6797 183.988 76.6133 184.168 76.6133C184.348 76.6133 184.504 76.6797 184.637 76.8125C184.762 76.9375 184.824 77.0898 184.824 77.2695V82.2383H186.828Z" fill="white"/>
</svg>
