<?xml version="1.0" standalone="no"?>
<!DOCTYPE svg PUBLIC "-//W3C//DTD SVG 20010904//EN"
 "http://www.w3.org/TR/2001/REC-SVG-20010904/DTD/svg10.dtd">
<svg version="1.0" xmlns="http://www.w3.org/2000/svg"
 width="160.000000pt" height="160.000000pt" viewBox="0 0 160.000000 160.000000"
 preserveAspectRatio="xMidYMid meet">
<metadata>
Created by potrace 1.11, written by Peter Selinger 2001-2013
</metadata>
<g transform="translate(0.000000,160.000000) scale(0.100000,-0.100000)"
fill="#000000" stroke="none">
<path d="M335 1520 c-124 -28 -236 -140 -270 -272 -30 -110 -2 -286 66 -421
54 -107 167 -260 292 -395 23 -25 69 -75 102 -111 33 -36 108 -114 166 -175
l106 -109 49 50 c106 107 262 273 324 342 36 41 70 79 75 85 6 6 26 31 45 56
19 25 38 47 42 50 3 3 28 37 53 75 159 236 201 465 118 630 -80 158 -261 237
-433 188 -74 -21 -201 -124 -257 -210 l-15 -22 -35 47 c-36 46 -49 60 -111
114 -81 71 -208 102 -317 78z"/>
</g>
</svg>
